<svg width="220" height="220" viewBox="0 0 220 220" fill="none" xmlns="http://www.w3.org/2000/svg">
<g clip-path="url(#clip0_252_153)">
<rect width="220" height="220" rx="110" fill="white"/>
<path d="M177.139 159.265C176.538 159.439 174.917 159.907 172.318 160.593C169.719 161.279 166.175 161.848 161.729 162.221C138.924 164.126 124.074 153.259 117.239 129.601L116.518 126.882C114.277 132.409 111.844 137.275 109.238 141.541C101.72 153.797 93.4059 161.274 84.3993 163.876C82.1777 164.518 80.0495 164.807 77.9719 164.822C72.9495 164.777 68.4541 162.953 64.6232 159.376C61.0591 156.047 58.4356 151.47 56.7355 145.586C53.2312 133.457 53.9832 117.821 59.1465 98.7642C62.2457 87.1995 66.4579 77.4601 71.7656 69.486C77.0132 61.5293 83.1696 56.0423 90.1921 53.1026C90.7752 52.8691 91.3583 52.6355 91.9587 52.4621C97.0197 51.0649 101.135 52.0228 104.441 55.3612C106.112 57.0904 107.389 59.2586 108.17 61.9606C109.662 67.1244 109.379 73.1262 107.416 80.0688C105.267 87.7158 101.194 95.0081 95.2307 102.066L88.5776 96.3762C91.2555 93.2604 93.4183 90.1634 95.1088 87.0076C96.7566 83.9293 98.0268 80.895 98.8767 77.9821C99.7265 75.0693 100.191 72.398 100.269 69.9681L100.312 69.8908L100.252 69.9081C100.297 67.8132 100.112 66.0452 99.6782 64.5441C99.1057 62.5627 98.2863 61.3031 97.1775 60.8428C96.5157 60.5786 95.6057 60.5813 94.5249 60.8936C91.5827 61.7436 88.5579 63.6585 85.5357 66.4834C80.8017 71.0389 76.6735 77.241 73.2111 85.0722C68.7682 95.1385 65.8036 105.819 64.3429 116.975C62.8808 127.676 63.1813 136.372 65.1417 143.157C65.2631 143.577 65.6274 144.838 66.3547 146.905C67.082 148.972 68.5218 151.028 70.6568 153.014C73.7819 155.949 77.5874 156.736 81.9706 155.47C86.8942 154.047 91.751 150.367 96.6438 144.334C102.888 136.675 108.102 126.126 112.286 112.686L90.5505 118.966L88.1217 110.56L131.053 98.1561L133.482 106.562L122.314 109.789C123.037 116.346 124.17 122.069 125.575 126.932C128.924 138.521 134.226 146.292 141.621 150.271C146.884 153.174 153.549 154.176 161.634 153.336C165.882 152.954 170.309 152.066 174.933 150.73C178.776 149.619 182.789 148.2 186.991 146.53C192.882 144.178 201.712 140.065 213.397 134.347C218.806 131.678 224.276 128.992 229.719 126.443C239.759 121.786 248.643 118.309 256.448 116.053C258.61 115.429 261.647 114.682 265.499 113.829C269.394 112.899 274.183 112.361 279.788 112.172L280.046 120.946C273.531 121.137 266.46 122.334 258.894 124.52C255.532 125.491 251.681 126.799 247.342 128.443C240.087 131.255 230.091 135.834 217.292 142.199C212.449 144.575 207.708 146.855 203.01 149.058C192.868 153.81 184.284 157.201 177.139 159.265Z" fill="black"/>
</g>
<defs>
<clipPath id="clip0_252_153">
<rect width="220" height="220" rx="110" fill="white"/>
</clipPath>
</defs>
</svg>
